<mxfile host="app.diagrams.net" agent="Mozilla/5.0 (Windows NT 10.0; Win64; x64) AppleWebKit/537.36 (KHTML, like Gecko) Chrome/128.0.0.0 Safari/537.36 Edg/128.0.0.0" version="24.7.14">
  <diagram name="Page-1" id="rgLUHZjOiqgXjQ-MpENu">
    <mxGraphModel dx="808" dy="431" grid="1" gridSize="10" guides="1" tooltips="1" connect="1" arrows="1" fold="1" page="1" pageScale="1" pageWidth="850" pageHeight="1100" math="0" shadow="0">
      <root>
        <mxCell id="0" />
        <mxCell id="1" parent="0" />
        <mxCell id="p2RqDRSbU7YcCy8wbTOB-1" value="" style="sketch=0;pointerEvents=1;shadow=1;dashed=0;html=1;strokeColor=none;fillColor=#434445;aspect=fixed;labelPosition=center;verticalLabelPosition=bottom;verticalAlign=top;align=center;outlineConnect=0;shape=mxgraph.vvd.ethernet_port;" vertex="1" parent="1">
          <mxGeometry x="120" y="140" width="60" height="60" as="geometry" />
        </mxCell>
        <mxCell id="p2RqDRSbU7YcCy8wbTOB-17" value="DHCP" style="endArrow=classic;html=1;rounded=0;strokeWidth=1;targetPerimeterSpacing=0;sourcePerimeterSpacing=0;opacity=70;fillColor=#e51400;strokeColor=#d90808;flowAnimation=1;dashed=1;dashPattern=1 4;shadow=0;" edge="1" parent="1">
          <mxGeometry x="0.0057" width="50" height="50" relative="1" as="geometry">
            <mxPoint x="120" y="90" as="sourcePoint" />
            <mxPoint x="190" y="90" as="targetPoint" />
            <mxPoint as="offset" />
          </mxGeometry>
        </mxCell>
        <mxCell id="p2RqDRSbU7YcCy8wbTOB-18" value="CDP" style="endArrow=classic;html=1;rounded=0;strokeWidth=1;targetPerimeterSpacing=0;sourcePerimeterSpacing=0;opacity=70;fillColor=#e51400;strokeColor=#d90808;flowAnimation=1;dashed=1;dashPattern=1 4;shadow=1;" edge="1" parent="1">
          <mxGeometry x="0.0057" width="50" height="50" relative="1" as="geometry">
            <mxPoint x="120" y="100" as="sourcePoint" />
            <mxPoint x="190" y="100" as="targetPoint" />
            <mxPoint as="offset" />
          </mxGeometry>
        </mxCell>
        <mxCell id="p2RqDRSbU7YcCy8wbTOB-19" value="NTP" style="endArrow=classic;html=1;rounded=0;strokeWidth=1;targetPerimeterSpacing=0;sourcePerimeterSpacing=0;opacity=70;fillColor=#e51400;strokeColor=#d90808;flowAnimation=1;dashed=1;dashPattern=1 4;shadow=1;" edge="1" parent="1">
          <mxGeometry x="0.0057" width="50" height="50" relative="1" as="geometry">
            <mxPoint x="120" y="110" as="sourcePoint" />
            <mxPoint x="190" y="110" as="targetPoint" />
            <mxPoint as="offset" />
          </mxGeometry>
        </mxCell>
        <mxCell id="p2RqDRSbU7YcCy8wbTOB-20" value="EAPoLAN" style="endArrow=classic;html=1;rounded=0;strokeWidth=1;targetPerimeterSpacing=0;sourcePerimeterSpacing=0;opacity=70;fillColor=#6d8764;strokeColor=#3A5431;flowAnimation=1;dashed=1;" edge="1" parent="1">
          <mxGeometry x="0.0065" width="50" height="50" relative="1" as="geometry">
            <mxPoint x="120" y="130" as="sourcePoint" />
            <mxPoint x="275" y="130" as="targetPoint" />
            <mxPoint as="offset" />
            <Array as="points">
              <mxPoint x="140" y="130" />
            </Array>
          </mxGeometry>
        </mxCell>
        <mxCell id="p2RqDRSbU7YcCy8wbTOB-25" value="" style="sketch=0;pointerEvents=1;shadow=0;dashed=0;html=1;strokeColor=none;fillColor=#434445;aspect=fixed;labelPosition=center;verticalLabelPosition=bottom;verticalAlign=top;align=center;outlineConnect=0;shape=mxgraph.vvd.ethernet_port;" vertex="1" parent="1">
          <mxGeometry x="120" y="330" width="60" height="60" as="geometry" />
        </mxCell>
        <mxCell id="p2RqDRSbU7YcCy8wbTOB-26" value="DHCP" style="endArrow=classic;html=1;rounded=0;strokeWidth=1;targetPerimeterSpacing=0;sourcePerimeterSpacing=0;opacity=70;fillColor=#6d8764;strokeColor=#3A5431;flowAnimation=1;dashed=1;" edge="1" parent="1">
          <mxGeometry x="0.0057" width="50" height="50" relative="1" as="geometry">
            <mxPoint x="120" y="300" as="sourcePoint" />
            <mxPoint x="280" y="300" as="targetPoint" />
            <mxPoint as="offset" />
          </mxGeometry>
        </mxCell>
        <mxCell id="p2RqDRSbU7YcCy8wbTOB-27" value="CDP" style="endArrow=classic;html=1;rounded=0;strokeWidth=1;targetPerimeterSpacing=0;sourcePerimeterSpacing=0;opacity=70;fillColor=#6d8764;strokeColor=#3A5431;flowAnimation=1;dashed=1;" edge="1" parent="1">
          <mxGeometry x="0.0057" width="50" height="50" relative="1" as="geometry">
            <mxPoint x="120" y="310" as="sourcePoint" />
            <mxPoint x="280" y="310" as="targetPoint" />
            <mxPoint as="offset" />
          </mxGeometry>
        </mxCell>
        <mxCell id="p2RqDRSbU7YcCy8wbTOB-28" value="NTP" style="endArrow=classic;html=1;rounded=0;strokeWidth=1;targetPerimeterSpacing=0;sourcePerimeterSpacing=0;opacity=70;fillColor=#6d8764;strokeColor=#3A5431;flowAnimation=1;dashed=1;" edge="1" parent="1">
          <mxGeometry x="0.0057" width="50" height="50" relative="1" as="geometry">
            <mxPoint x="120" y="320" as="sourcePoint" />
            <mxPoint x="280" y="320" as="targetPoint" />
            <mxPoint as="offset" />
          </mxGeometry>
        </mxCell>
        <mxCell id="p2RqDRSbU7YcCy8wbTOB-31" value="" style="sketch=0;aspect=fixed;pointerEvents=1;shadow=1;dashed=0;html=1;strokeColor=#B20000;labelPosition=center;verticalLabelPosition=bottom;verticalAlign=top;align=center;shape=mxgraph.mscae.enterprise.not_allowed;fillColor=#e51400;fontColor=#ffffff;" vertex="1" parent="1">
          <mxGeometry x="190" y="80" width="40" height="40" as="geometry" />
        </mxCell>
        <mxCell id="p2RqDRSbU7YcCy8wbTOB-32" value="" style="shape=image;html=1;verticalAlign=top;verticalLabelPosition=bottom;labelBackgroundColor=#ffffff;imageAspect=0;aspect=fixed;image=https://cdn1.iconfinder.com/data/icons/iconoir-vol-4/24/security-pass-128.png;fontColor=#a92b00;fontStyle=1;" vertex="1" parent="1">
          <mxGeometry x="280" y="280" width="50" height="50" as="geometry" />
        </mxCell>
        <mxCell id="p2RqDRSbU7YcCy8wbTOB-33" value="&lt;i&gt;After 802.1x Authentication&lt;/i&gt;" style="text;html=1;align=center;verticalAlign=middle;resizable=0;points=[];autosize=1;strokeColor=none;fillColor=none;" vertex="1" parent="1">
          <mxGeometry x="110" y="260" width="170" height="30" as="geometry" />
        </mxCell>
        <mxCell id="p2RqDRSbU7YcCy8wbTOB-34" value="&lt;i&gt;Before 802.1x Authentication&lt;/i&gt;" style="text;html=1;align=center;verticalAlign=middle;resizable=0;points=[];autosize=1;strokeColor=none;fillColor=none;" vertex="1" parent="1">
          <mxGeometry x="115" y="40" width="180" height="30" as="geometry" />
        </mxCell>
        <mxCell id="p2RqDRSbU7YcCy8wbTOB-35" value="" style="endArrow=none;html=1;rounded=0;" edge="1" parent="1">
          <mxGeometry width="50" height="50" relative="1" as="geometry">
            <mxPoint x="80" y="230" as="sourcePoint" />
            <mxPoint x="340" y="230" as="targetPoint" />
          </mxGeometry>
        </mxCell>
      </root>
    </mxGraphModel>
  </diagram>
</mxfile>
